<?xml version="1.0" encoding="utf-8"?>
<!-- Generator: Adobe Illustrator 21.1.0, SVG Export Plug-In . SVG Version: 6.00 Build 0)  -->
<svg version="1.1" id="Слой_1" xmlns="http://www.w3.org/2000/svg" xmlns:xlink="http://www.w3.org/1999/xlink" x="0px" y="0px"
	 viewBox="0 0 344 112" style="enable-background:new 0 0 344 112;" xml:space="preserve">
<style type="text/css">
	.st0{fill:#DDA534;}
	.st1{fill:#272425;}
	.st2{fill:#DEA534;}
</style>
<g>
	<path class="st0" d="M95,32.1c-0.2-0.4,0-0.8,0.4-1l0,0l75.9-30.8c0.2-0.1,0.4-0.1,0.5,0l0,0l76.6,30.2c0.4,0.1,0.6,0.6,0.4,0.9
		l0,0c-0.1,0.4-0.6,0.6-0.9,0.4l0,0L171.6,1.8L95.9,32.5h0c-0.1,0-0.2,0.1-0.3,0.1l0,0C95.4,32.5,95.1,32.4,95,32.1L95,32.1z"/>
	<rect x="119.2" y="23.3" class="st0" width="105.5" height="49.7"/>
	<g>
		<g>
			<path class="st1" d="M145.5,27.7c-11.3,0-20.4,9.2-20.4,20.4c0,11.3,9.2,20.4,20.4,20.4c11.3,0,20.4-9.2,20.4-20.4
				C166,36.8,156.8,27.7,145.5,27.7z M145.7,60.2c-6.8,0-12.3-5.5-12.3-12.4c0-6.8,5.5-12.4,12.3-12.4c6.8,0,12.3,5.5,12.3,12.4
				C158,54.7,152.5,60.2,145.7,60.2z"/>
		</g>
	</g>
	<path class="st1" d="M170.8,29.4h13.5c12.4,0,19.6,8,19.6,19.2v0.1c0,11.2-7.3,19.6-19.8,19.6h-13.3V29.4z"/>
	<rect x="209.1" y="29.4" class="st1" width="9.6" height="38.9"/>
	<path class="st0" d="M180.5,38.9v19.9h3.9c5.8,0,9.6-3.6,9.6-9.8v-0.1c0-6.2-3.8-9.9-9.6-9.9H180.5z"/>
</g>
<g>
	<path class="st2" d="M5.5,99.5L5.5,99.5c0-2.9,1.9-5.4,4.7-5.4c2.8,0,4.8,2.5,4.8,5.4v0.1c0,2.9-1.9,5.3-4.7,5.3
		C7.5,104.9,5.5,102.4,5.5,99.5 M0.3,99.5L0.3,99.5c0,5.8,4.3,10.4,10,10.4c5.7,0,10.1-4.6,10.1-10.4v-0.1c0-5.7-4.3-10.3-10-10.3
		C4.6,89.1,0.3,93.8,0.3,99.5"/>
	<path class="st2" d="M22.1,99.5L22.1,99.5c0,6,4.3,10.4,9.6,10.4c4.1,0,6.5-1.9,8.2-4.5l-3.9-3c-1.1,1.5-2.3,2.4-4.2,2.4
		c-2.6,0-4.4-2.3-4.4-5.3v-0.1c0-2.9,1.8-5.3,4.4-5.3c1.8,0,3,0.9,4.1,2.3l3.9-3.2c-1.6-2.4-4.1-4.1-7.9-4.1
		C26.3,89.1,22.1,93.7,22.1,99.5"/>
	<polygon class="st2" points="41.9,89.5 41.9,109.5 57,109.5 57,104.8 47,104.8 47,101.6 55.9,101.6 55.9,97.2 47,97.2 47,94.2 
		56.9,94.2 56.9,89.5 	"/>
	<path class="st2" d="M68.3,95.9l2.1,5.6h-4.2L68.3,95.9z M65.8,89.4l-7.9,20.1h5.4l1.3-3.6h7.2l1.3,3.6h5.5l-7.9-20.1H65.8z"/>
	<polygon class="st2" points="92.7,89.5 92.7,100.1 85.1,89.5 80.3,89.5 80.3,109.5 85.4,109.5 85.4,98.5 93.4,109.5 97.8,109.5 
		97.8,89.5 	"/>
	<path class="st2" d="M104,91.6h4.4c4.7,0,7.7,3.5,7.7,7.9v0.1c0,4.4-3,7.8-7.7,7.8H104V91.6z M101.9,89.5v19.9h6.5
		c5.9,0,9.9-4.4,9.9-10v-0.1c0-5.6-4-9.9-9.9-9.9H101.9z"/>
	<polygon class="st2" points="122.4,89.5 122.4,109.5 136,109.5 136,107.4 124.5,107.4 124.5,100.4 134.6,100.4 134.6,98.4 
		124.5,98.4 124.5,91.6 135.8,91.6 135.8,89.5 	"/>
	<polygon class="st2" points="154,89.5 147.3,106.7 140.7,89.5 138.3,89.5 146.4,109.6 148.2,109.6 156.2,89.5 	"/>
	<polygon class="st2" points="159.6,89.5 159.6,109.5 173.2,109.5 173.2,107.4 161.7,107.4 161.7,100.4 171.9,100.4 171.9,98.4 
		161.7,98.4 161.7,91.6 173.1,91.6 173.1,89.5 	"/>
	<polygon class="st2" points="177.2,89.5 177.2,109.5 189.7,109.5 189.7,107.4 179.3,107.4 179.3,89.5 	"/>
	<path class="st2" d="M193.7,99.5L193.7,99.5c0-4.6,3-8.2,7.3-8.2c4.3,0,7.3,3.7,7.3,8.2v0.1c0,4.5-3,8.2-7.3,8.2
		C196.7,107.7,193.7,104,193.7,99.5 M191.5,99.5L191.5,99.5c0,5.6,3.8,10.3,9.5,10.3c5.7,0,9.5-4.8,9.5-10.3v-0.1
		c0-5.5-3.8-10.3-9.5-10.3C195.3,89.2,191.5,94,191.5,99.5"/>
	<path class="st2" d="M216.7,91.6h4.7c3,0,5,1.5,5,4.3V96c0,2.6-2,4.4-5.1,4.4h-4.6V91.6z M214.6,89.5v19.9h2.1v-7h4.5
		c4,0,7.3-2.2,7.3-6.5v-0.1c0-3.9-2.8-6.3-7-6.3H214.6z"/>
	<polygon class="st2" points="247.8,89.5 241,100.4 234.3,89.5 232.1,89.5 232.1,109.5 234.2,109.5 234.2,93.3 241,104 241.1,104 
		247.9,93.3 247.9,109.5 250,109.5 250,89.5 	"/>
	<polygon class="st2" points="255,89.5 255,109.5 268.5,109.5 268.5,107.4 257.1,107.4 257.1,100.4 267.2,100.4 267.2,98.4 
		257.1,98.4 257.1,91.6 268.4,91.6 268.4,89.5 	"/>
	<polygon class="st2" points="286.2,89.5 286.2,105.5 274.5,89.5 272.5,89.5 272.5,109.5 274.5,109.5 274.5,93.1 286.6,109.5 
		288.2,109.5 288.2,89.5 	"/>
	<polygon class="st2" points="291.9,89.5 291.9,91.6 298.2,91.6 298.2,109.5 300.3,109.5 300.3,91.6 306.5,91.6 306.5,89.5 	"/>
	<path class="st2" d="M308.8,107.7v1.8h0.6c0.1,0.7-0.3,1.2-1.1,1.5l0.2,0.6c1.2-0.3,1.8-1,1.8-2.3v-1.5H308.8z"/>
	<rect x="316.4" y="97.5" class="st2" width="1.3" height="12"/>
	<rect x="316.4" y="97.5" class="st2" width="1.3" height="12"/>
	<polygon class="st2" points="328.3,97.5 328.3,107.1 321.3,97.5 320.1,97.5 320.1,109.5 321.3,109.5 321.3,99.6 328.5,109.5 
		329.5,109.5 329.5,97.5 	"/>
	<path class="st2" d="M331.4,103.5L331.4,103.5c0,3.5,2.4,6.2,5.6,6.2c2,0,3.3-0.8,4.5-2.1l-0.8-0.9c-1.1,1.1-2.1,1.7-3.6,1.7
		c-2.5,0-4.3-2.2-4.3-4.9v0c0-2.8,1.9-4.9,4.3-4.9c1.5,0,2.6,0.7,3.5,1.6l0.9-1c-1.1-1.1-2.3-1.9-4.4-1.9
		C333.8,97.3,331.4,100.1,331.4,103.5"/>
	<rect x="342.5" y="107.7" class="st2" width="1.5" height="1.8"/>
	<rect x="342.5" y="107.7" class="st2" width="1.5" height="1.8"/>
</g>
</svg>
