<svg id="Слой_1" xmlns="http://www.w3.org/2000/svg" viewBox="0 0 344 112"><style>.st0{fill:#DDA534;} .st1{fill:#272425;} .st2{fill:#DEA534;}</style><path class="st0" d="M95 32.1c-.2-.4 0-.8.4-1L171.3.3c.2-.1.4-.1.5 0l76.6 30.2c.4.1.6.6.4.9-.1.4-.6.6-.9.4l-76.3-30-75.7 30.7c-.1 0-.2.1-.3.1-.2-.1-.5-.2-.6-.5z"/><path class="st0" d="M119.2 23.3h105.5V73H119.2z"/><path class="st1" d="M145.5 27.7c-11.3 0-20.4 9.2-20.4 20.4 0 11.3 9.2 20.4 20.4 20.4 11.3 0 20.4-9.2 20.4-20.4.1-11.3-9.1-20.4-20.4-20.4zm.2 32.5c-6.8 0-12.3-5.5-12.3-12.4 0-6.8 5.5-12.4 12.3-12.4 6.8 0 12.3 5.5 12.3 12.4s-5.5 12.4-12.3 12.4zM170.8 29.4h13.5c12.4 0 19.6 8 19.6 19.2v.1c0 11.2-7.3 19.6-19.8 19.6h-13.3V29.4zM209.1 29.4h9.6v38.9h-9.6z"/><path class="st0" d="M180.5 38.9v19.9h3.9c5.8 0 9.6-3.6 9.6-9.8v-.1c0-6.2-3.8-9.9-9.6-9.9h-3.9z"/><g><path class="st2" d="M5.5 99.5c0-2.9 1.9-5.4 4.7-5.4 2.8 0 4.8 2.5 4.8 5.4v.1c0 2.9-1.9 5.3-4.7 5.3-2.8 0-4.8-2.5-4.8-5.4m-5.2 0c0 5.8 4.3 10.4 10 10.4s10.1-4.6 10.1-10.4v-.1c0-5.7-4.3-10.3-10-10.3C4.6 89.1.3 93.8.3 99.5M22.1 99.5c0 6 4.3 10.4 9.6 10.4 4.1 0 6.5-1.9 8.2-4.5l-3.9-3c-1.1 1.5-2.3 2.4-4.2 2.4-2.6 0-4.4-2.3-4.4-5.3v-.1c0-2.9 1.8-5.3 4.4-5.3 1.8 0 3 .9 4.1 2.3l3.9-3.2c-1.6-2.4-4.1-4.1-7.9-4.1-5.6 0-9.8 4.6-9.8 10.4M41.9 89.5v20H57v-4.7H47v-3.2h8.9v-4.4H47v-3h9.9v-4.7zM68.3 95.9l2.1 5.6h-4.2l2.1-5.6zm-2.5-6.5l-7.9 20.1h5.4l1.3-3.6h7.2l1.3 3.6h5.5l-7.9-20.1h-4.9zM92.7 89.5v10.6l-7.6-10.6h-4.8v20h5.1v-11l8 11h4.4v-20zM104 91.6h4.4c4.7 0 7.7 3.5 7.7 7.9v.1c0 4.4-3 7.8-7.7 7.8H104V91.6zm-2.1-2.1v19.9h6.5c5.9 0 9.9-4.4 9.9-10v-.1c0-5.6-4-9.9-9.9-9.9h-6.5zM122.4 89.5v20H136v-2.1h-11.5v-7h10.1v-2h-10.1v-6.8h11.3v-2.1zM154 89.5l-6.7 17.2-6.6-17.2h-2.4l8.1 20.1h1.8l8-20.1zM159.6 89.5v20h13.6v-2.1h-11.5v-7h10.2v-2h-10.2v-6.8h11.4v-2.1zM177.2 89.5v20h12.5v-2.1h-10.4V89.5zM193.7 99.5c0-4.6 3-8.2 7.3-8.2s7.3 3.7 7.3 8.2v.1c0 4.5-3 8.2-7.3 8.2-4.3-.1-7.3-3.8-7.3-8.3m-2.2 0c0 5.6 3.8 10.3 9.5 10.3s9.5-4.8 9.5-10.3v-.1c0-5.5-3.8-10.3-9.5-10.3-5.7.1-9.5 4.9-9.5 10.4M216.7 91.6h4.7c3 0 5 1.5 5 4.3v.1c0 2.6-2 4.4-5.1 4.4h-4.6v-8.8zm-2.1-2.1v19.9h2.1v-7h4.5c4 0 7.3-2.2 7.3-6.5v-.1c0-3.9-2.8-6.3-7-6.3h-6.9zM247.8 89.5l-6.8 10.9-6.7-10.9h-2.2v20h2.1V93.3L241 104h.1l6.8-10.7v16.2h2.1v-20zM255 89.5v20h13.5v-2.1h-11.4v-7h10.1v-2h-10.1v-6.8h11.3v-2.1zM286.2 89.5v16l-11.7-16h-2v20h2V93.1l12.1 16.4h1.6v-20zM291.9 89.5v2.1h6.3v17.9h2.1V91.6h6.2v-2.1zM308.8 107.7v1.8h.6c.1.7-.3 1.2-1.1 1.5l.2.6c1.2-.3 1.8-1 1.8-2.3v-1.5h-1.5zM316.4 97.5h1.3v12h-1.3z"/><path class="st2" d="M316.4 97.5h1.3v12h-1.3zM328.3 97.5v9.6l-7-9.6h-1.2v12h1.2v-9.9l7.2 9.9h1v-12zM331.4 103.5c0 3.5 2.4 6.2 5.6 6.2 2 0 3.3-.8 4.5-2.1l-.8-.9c-1.1 1.1-2.1 1.7-3.6 1.7-2.5 0-4.3-2.2-4.3-4.9 0-2.8 1.9-4.9 4.3-4.9 1.5 0 2.6.7 3.5 1.6l.9-1c-1.1-1.1-2.3-1.9-4.4-1.9-3.3 0-5.7 2.8-5.7 6.2M342.5 107.7h1.5v1.8h-1.5z"/><path class="st2" d="M342.5 107.7h1.5v1.8h-1.5z"/></g></svg>